<svg version="1" xmlns="http://www.w3.org/2000/svg" width="1365.333" height="1365.333" viewBox="0 0 1024.000000 1024.000000"><path d="M252.6 267.6c-18.8 4.5-37.3 22.1-43.7 41.5l-2.4 7.4v196c0 188.6.1 196.2 1.9 201.5 6.8 20.2 24.5 37.4 43.6 42.5 8.3 2.2 511.7 2.2 520 0 10.2-2.7 17.9-7.3 26.6-15.9 9.5-9.5 14.6-18 17.4-29.2 2-7.8 2-10.9 1.8-201.9l-.3-194-2.3-6.5c-7.4-20.4-25.8-37.5-44.9-41.5-10.1-2.2-508.8-2.1-517.7.1zm30 71.2c4.3 2.7 55.2 34.3 112.9 70.2 57.8 35.9 107.8 67 111.3 69.2l6.2 3.8 10.3-6.3c5.6-3.5 58.5-36.4 117.6-73.2 59.1-36.7 108.7-67.3 110.1-67.8 2-.8 3.6-.7 5.9.2l3.1 1.3v53.3l-3.7 2.4c-2.1 1.3-57.7 35.6-123.5 76.2L513 541.9l-117.8-72.5c-64.7-39.9-120.3-74.2-123.4-76.2l-5.8-3.7v-53.2l2.3-1.1c3.9-1.9 6.2-1.3 14.3 3.6z"/></svg>